<svg width="299" height="299" viewBox="0 0 299 299" fill="none" xmlns="http://www.w3.org/2000/svg">
<path d="M32.7226 119.54C31.2276 121.646 27.4361 124.303 24.6586 127.604C24.4892 127.434 22.415 130.222 22.0419 130.968C21.3678 132.316 21.667 134.523 22.3623 135.774C23.4762 137.779 26.5122 138.837 28.4503 139.806C29.5299 140.346 34.4796 140.677 34.7252 141.782C35.1805 143.831 32.9498 147.2 32.4556 149.232C31.8685 151.646 32.581 153.834 33.5503 155.988C35.1464 159.535 37.7278 162.069 39.5582 165.413C43.5689 172.741 47.6082 181.39 49.0641 189.605C49.8953 194.295 50.5706 196.912 48.4232 200.9C47.3147 202.959 45.8858 204.613 43.9907 205.947C41.4933 207.704 39.6045 210.671 37.609 212.916C35.3322 215.477 32.3398 217.858 29.4383 219.671C27.3823 220.956 25.8304 222.07 25.3796 224.504C24.8091 227.585 23.8678 235.567 26.3142 238.149C28.8516 240.828 32.9853 242.646 35.9268 244.878C38.1004 246.527 40.6263 248.808 43.4033 247.174C44.9791 246.247 46.4853 243.421 47.8358 242.101C55.9232 234.193 69.41 230.993 80.3052 230.993C87.9272 230.993 97.5819 233.206 101.934 240.072C103.451 242.466 104.61 244.839 106.393 247.068L106.465 247.158C107.723 248.732 110.748 252.515 112.801 252.515C113.3 252.515 114.775 251.622 115.258 251.366C116.88 250.508 118.545 250.646 120.331 250.646C127.889 250.646 133.998 251.817 141.078 254.491C143.584 255.437 147.618 256.671 149.383 258.843C150.759 260.537 151.788 262.484 152.961 264.317C154.086 266.074 154.937 266.615 156.939 267.094C159.99 267.823 163.173 269.566 165.965 270.939C172.402 274.106 178.81 277.96 185.67 280.071C189.568 281.27 192.868 282.367 196.992 282.367H208.047H208.072C215.708 282.367 222.967 282.367 229.301 277.668C233.486 274.563 235.869 269.816 238.059 265.278C240.484 260.256 240.893 256.561 246.684 254.517C251.423 252.845 254.747 252.146 258.727 248.83C260.882 247.034 265.936 242.985 265.936 239.831C265.936 238.452 264.518 236.78 264.014 235.532L263.945 235.363C262.037 230.647 260.111 225.884 258.833 220.953C257.503 215.818 257.765 210.61 257.765 205.359C257.765 197.368 258.782 189.279 260.436 181.461C261.077 178.431 261.869 174.23 264.12 171.929C265.739 170.274 268.023 169.558 270.048 168.564C273.021 167.106 273.991 165.613 275.282 162.663C276.523 159.825 278.04 157.285 279.581 154.546C281.173 151.714 280.022 146.843 278.806 144.052C275.982 137.566 269.692 132.279 268.366 124.987C267.993 122.937 265.579 122.102 264.014 120.768C255.256 113.308 249.997 101.105 244.788 91.1824C234.23 71.0709 241.156 82.504 232.078 66.4566C229.881 62.5721 226.629 59.0514 223.16 56.2565C221.278 54.7407 219.311 53.2973 218.38 50.9695C216.538 46.364 218.358 40.8075 216.671 36.1233C215.499 32.8666 210.734 30.5715 207.78 29.4479C198.614 25.9623 188.814 24.5455 179.022 24.2944C172.079 24.1164 164.088 23.4865 157.206 24.3745C151.988 25.0478 148.248 26.9575 143.882 29.795C140.527 31.9761 136.975 33.7398 132.801 32.8123C126.585 31.4309 119.854 32.1776 113.522 31.2102C105.728 30.0194 101.391 29 93.4998 29C91.6762 29 89.0947 30.893 88.9566 32.3851C88.3828 38.582 87.1605 45.2868 84.5775 50.9695C82.582 55.3595 75.2786 58.2305 70.7993 56.9507C67.988 56.1475 66.6172 52.6932 63.4831 52.625C60.488 52.5599 57.7321 52.5679 54.8317 53.2125C48.7456 54.5649 37.1939 61.721 39.4514 69.3404C40.1819 71.8056 41.9189 72.879 43.3766 74.9744C46.2499 79.1047 47.729 83.3017 47.729 88.3787C47.729 93.7374 48.4057 100.687 45.3258 105.388C43.4809 108.204 38.9321 107.141 36.9148 109.607C34.6358 112.392 34.86 116.528 32.7226 119.54Z" fill="#F4F7FA"/>
<path d="M205.096 72.7903C205.096 72.7903 207.496 79.1318 210.057 78.9624C212.618 78.793 226.113 77.6853 228.332 81.0312C230.552 84.377 234.481 84.0649 237.617 83.0238C241.704 81.6668 246.888 78.0507 250.366 85.7835C253.844 93.5162 257.531 89.3672 259.931 90.4254C262.331 91.4836 262.033 93.2936 262.033 93.2936L257.026 100.787L188.135 94.6791L205.096 72.7903Z" fill="#1B5EC9"/>
<path d="M64.9696 183.008C64.8597 181.198 65.2065 178.841 66.9673 178.464C68.4399 178.151 69.6813 179.549 70.4831 180.833C76.2675 190.099 78.0283 201.271 79.6658 212.09C79.9255 213.809 80.1738 215.639 79.4763 217.232C79.0025 218.32 78.1306 219.184 77.2019 219.906C75.3654 221.338 71.9898 223.502 69.5335 222.662C68.4683 222.297 68.0552 221.392 68.095 220.309C68.1575 218.618 68.3812 216.941 68.4001 215.245C68.4816 208.334 67.3141 201.492 66.3153 194.679C65.7353 190.809 65.2103 186.922 64.9696 183.008ZM241.869 182.434C241.829 180.621 241.289 178.3 239.504 178.073C238.01 177.882 236.89 179.379 236.196 180.724C231.191 190.441 230.351 201.718 229.608 212.64C229.491 214.376 229.394 216.219 230.216 217.749C230.785 218.794 231.718 219.583 232.707 220.232C234.655 221.506 238.203 223.38 240.574 222.334C241.607 221.881 241.945 220.943 241.816 219.869C241.615 218.189 241.247 216.538 241.096 214.848C240.449 207.972 241.05 201.051 241.494 194.177C241.744 190.271 241.952 186.353 241.869 182.434Z" fill="#FBD2B5"/>
<path d="M199.591 72.7903C202.038 75.15 204.307 77.6856 206.378 80.3764C206.89 81.0429 207.601 81.5326 208.41 81.7759C209.221 82.0193 210.088 82.0039 210.888 81.7322C213.686 80.7675 216.641 80.3061 219.072 81.7986C221.139 83.0709 222.232 85.4768 224.179 86.9257C227.153 89.1398 231.385 88.6119 234.848 87.2656C238.463 85.8604 241.819 83.6729 245.685 83.126C245.936 83.0869 246.191 83.0908 246.442 83.1374C248.032 83.4507 248.022 85.1825 248.289 86.5326C249.056 90.4368 251.088 92.4458 255.052 93.1009C256.586 93.3554 262.239 92.0318 262.04 93.1864C256.438 120.001 247.127 145.258 237.987 170.217C231.943 168.318 225.797 166.738 219.599 165.409C213.369 164.08 207.089 162.984 200.786 162.046C194.483 161.108 188.178 160.324 181.857 159.595C175.537 158.866 169.201 158.19 162.873 157.476C160.098 157.162 156.831 157.202 154.219 156.146C153.427 155.848 152.731 155.341 152.209 154.68C151.686 154.02 151.356 153.23 151.254 152.396C150.616 147.776 154.215 143.141 156.403 139.408C159.563 134.025 162.779 128.674 166.051 123.354C169.322 118.035 172.651 112.751 176.036 107.504C179.418 102.256 182.856 97.0423 186.352 91.8647C189.859 86.6629 193.422 81.4998 197.043 76.3754C197.263 76.0697 199.662 72.8586 199.591 72.7903Z" fill="#FF8D55"/>
<path d="M243.779 122.627C243.648 122.626 243.52 122.592 243.406 122.528C243.294 122.463 243.199 122.37 243.131 122.258C243.062 122.146 243.024 122.017 243.021 121.886C243.015 121.754 243.043 121.624 243.104 121.507C246.732 114.37 249.58 106.855 251.598 99.0949C251.655 98.9044 251.781 98.7436 251.954 98.646C252.125 98.5482 252.326 98.5215 252.516 98.5713C252.706 98.621 252.871 98.7434 252.974 98.9126C253.077 99.0818 253.111 99.2849 253.069 99.4791C251.022 107.348 248.134 114.969 244.455 122.206C244.391 122.332 244.296 122.438 244.176 122.513C244.056 122.587 243.919 122.626 243.779 122.627ZM239.287 133.262C239.209 133.262 239.133 133.25 239.059 133.226C238.867 133.164 238.707 133.029 238.614 132.849C238.521 132.669 238.504 132.459 238.563 132.265C238.635 132.033 238.713 131.774 238.796 131.497C239.366 129.634 240.126 127.079 241.21 125.75C241.27 125.668 241.348 125.599 241.438 125.548C241.525 125.497 241.624 125.464 241.725 125.452C241.827 125.44 241.93 125.448 242.027 125.477C242.126 125.506 242.217 125.555 242.297 125.62C242.374 125.685 242.439 125.766 242.487 125.857C242.534 125.949 242.564 126.049 242.572 126.152C242.58 126.254 242.568 126.358 242.536 126.456C242.504 126.554 242.452 126.644 242.386 126.722C241.498 127.821 240.748 130.304 240.252 131.946C240.166 132.229 240.087 132.492 240.012 132.728C239.963 132.884 239.866 133.019 239.735 133.115C239.606 133.211 239.448 133.263 239.287 133.262Z" fill="black"/>
<path d="M242.875 96.3069H242.857C242.341 96.3135 241.838 96.1284 241.436 95.7831C240.731 95.1452 240.557 93.9478 241.043 93.0568C241.272 92.6623 241.596 92.3405 241.98 92.1249C242.366 91.9093 242.799 91.8078 243.233 91.8309C243.395 91.8377 243.549 91.9074 243.667 92.0269C244.082 92.0897 244.461 92.3097 244.735 92.647C244.943 92.8901 245.095 93.183 245.177 93.5012C245.259 93.8195 245.269 94.1539 245.206 94.477C244.975 95.5229 243.975 96.3069 242.875 96.3069ZM242.921 93.2778C242.774 93.3029 242.635 93.3601 242.51 93.4462C242.386 93.5321 242.279 93.6445 242.199 93.7767C242.12 93.9207 242.087 94.0883 242.105 94.2542C242.122 94.4201 242.191 94.5752 242.299 94.6961C242.463 94.8255 242.663 94.8914 242.867 94.8832C243.353 94.8921 243.814 94.5589 243.904 94.1545C243.918 94.0549 243.909 93.9533 243.881 93.8576C243.851 93.7619 243.803 93.6744 243.737 93.6021C243.701 93.5526 243.654 93.5125 243.6 93.4848C243.547 93.457 243.488 93.4423 243.43 93.4417C243.338 93.4528 243.246 93.4439 243.159 93.4153C243.071 93.3868 242.991 93.3393 242.921 93.276V93.2778Z" fill="black"/>
<path d="M244.095 92.9476C243.959 92.9476 243.825 92.9102 243.708 92.8392C243.59 92.7682 243.494 92.6661 243.429 92.5439C243.363 92.4218 243.333 92.2842 243.339 92.1454C243.344 92.0066 243.386 91.872 243.462 91.756C247.969 84.6851 250.398 76.4505 250.46 68.0221C250.46 65.8622 250.271 63.171 248.631 61.5212C247.581 60.4643 246.127 60.0504 245.09 59.8907C241.712 59.3709 237.92 60.5721 233.494 63.5694C224.591 69.5948 218.398 78.3557 216.505 87.6036C216.459 87.7994 216.342 87.9698 216.176 88.0782C216.009 88.1863 215.807 88.2241 215.614 88.1831C215.419 88.1421 215.251 88.0256 215.139 87.8587C215.03 87.6918 214.988 87.4876 215.024 87.2899C216.999 77.6473 223.424 68.5361 232.656 62.2874C237.409 59.0687 241.546 57.7866 245.317 58.368C247.122 58.6471 248.637 59.3594 249.696 60.4278C251.733 62.4799 251.983 65.5676 251.966 68.0278C251.901 76.7535 249.388 85.2788 244.721 92.5991C244.653 92.705 244.561 92.7924 244.451 92.853C244.341 92.9139 244.22 92.9462 244.095 92.9476Z" fill="black"/>
<path d="M249.301 90.7079C249.187 90.7079 249.075 90.6816 248.974 90.6315C248.796 90.5451 248.659 90.3919 248.594 90.2055C248.528 90.0192 248.541 89.8147 248.627 89.6373C250.061 86.7031 252.242 80.9947 252.601 77.4852C252.975 73.782 252.414 70.8757 250.916 68.8463C249.142 66.4259 245.735 65.0649 242.237 65.3628C239.31 65.6123 236.208 66.9174 233.017 69.2466C228.179 72.7816 224.388 77.5505 222.049 83.0502C221.972 83.2321 221.824 83.376 221.641 83.4501C221.455 83.5244 221.249 83.5227 221.066 83.4458C220.884 83.3687 220.738 83.2226 220.665 83.0394C220.59 82.8563 220.592 82.6512 220.669 82.4693C223.114 76.7224 227.074 71.739 232.132 68.0457C235.546 65.5527 238.904 64.1508 242.11 63.8789C246.179 63.5326 250.016 65.0984 252.126 67.975C253.844 70.3116 254.503 73.5604 254.083 77.6453C253.709 81.3354 251.448 87.2653 249.966 90.2964C249.904 90.4193 249.808 90.5226 249.692 90.5952C249.574 90.6678 249.44 90.7069 249.301 90.7079Z" fill="black"/>
<path d="M144.581 44.9496C144.828 44.3375 145.252 43.8116 145.8 43.4378C146.347 43.064 146.993 42.859 147.658 42.8484L164.535 42.5677C166.378 42.5374 168.256 42.5127 170.021 43.038C171.824 43.5728 173.403 44.65 174.968 45.693C184.753 52.1829 195.141 57.7255 205.992 62.2449C206.458 62.4389 206.879 62.7241 207.23 63.0836C207.583 63.4432 207.859 63.8695 208.04 64.3372C208.223 64.8046 208.307 65.304 208.29 65.805C208.273 66.3062 208.155 66.7987 207.943 67.2533L187.377 111.159C181.215 124.303 175.054 137.472 169.809 151.008C167.175 157.805 164.77 164.712 163.206 171.829C163.135 172.18 162.996 172.512 162.795 172.809C161.977 173.989 160.841 173.568 159.909 173.13C152.269 169.496 146.08 163.517 140.029 157.642C134.813 152.578 129.587 147.502 124.928 141.926C122.827 139.41 120.785 136.679 120.098 133.482C119.41 130.284 120.147 126.952 120.896 123.759C122.204 118.119 123.57 112.488 124.94 106.864C126.328 101.186 127.744 95.5147 129.19 89.8509C129.854 87.2452 130.761 84.5997 131.077 81.9239C131.268 80.3214 131.157 78.7379 131.6 77.1677C132.364 74.4919 133.642 71.9052 134.687 69.3317L137.974 61.2284L144.581 44.9496Z" fill="white"/>
<path d="M161.43 174.697C160.649 174.697 159.927 174.353 159.544 174.172C151.652 170.426 145.379 164.341 139.304 158.457C134.12 153.435 128.758 148.241 124.032 142.599C121.996 140.166 119.759 137.279 119.002 133.78C118.246 130.281 119.081 126.782 119.811 123.674C120.947 118.789 122.205 113.547 123.888 106.681C125.279 101.001 126.721 95.2408 128.172 89.5682C128.365 88.8303 128.573 88.0809 128.775 87.3564C129.297 85.4992 129.834 83.5791 130.057 81.6972C130.12 81.1595 130.149 80.6046 130.178 80.0669C130.234 79.0048 130.294 77.9066 130.607 76.7968C131.16 74.8462 131.986 72.9414 132.784 71.1014C133.106 70.3578 133.439 69.5874 133.747 68.8381L143.718 44.3231C144.024 43.5684 144.548 42.9201 145.225 42.4595C145.901 41.9988 146.7 41.7463 147.521 41.7337L164.525 41.4477C166.331 41.4191 168.375 41.3848 170.288 41.9511C172.142 42.5022 173.753 43.5623 175.293 44.5881L175.486 44.714C185.306 51.2097 195.733 56.7587 206.622 61.2855C207.186 61.5204 207.698 61.8657 208.123 62.3008C208.551 62.7361 208.886 63.2521 209.105 63.8178C209.326 64.3837 209.43 64.988 209.409 65.5943C209.39 66.2007 209.246 66.7967 208.988 67.347L188.257 111.498C182.157 124.488 175.849 137.929 170.569 151.514C168.381 157.151 165.651 164.61 163.95 172.338C163.858 172.788 163.677 173.213 163.419 173.595C162.833 174.439 162.11 174.697 161.43 174.697ZM144.43 44.6053L145.144 44.8894L135.173 69.4044C134.861 70.1671 134.524 70.9469 134.199 71.6925C133.429 73.4886 132.615 75.3458 132.091 77.1992C131.822 78.1525 131.77 79.1059 131.706 80.1374C131.676 80.698 131.645 81.2815 131.576 81.865C131.341 83.8651 130.786 85.8424 130.249 87.7549C130.057 88.4718 129.841 89.2116 129.656 89.9324C128.207 95.603 126.769 101.356 125.374 107.032C123.693 113.896 122.436 119.127 121.301 124.002C120.608 126.958 119.822 130.308 120.5 133.446C121.177 136.585 123.287 139.319 125.208 141.611C129.882 147.192 135.217 152.357 140.372 157.353C146.357 163.151 152.547 169.146 160.198 172.784C161.409 173.356 161.79 173.221 162.141 172.716C162.285 172.498 162.385 172.254 162.437 171.999C164.169 164.17 166.914 156.64 169.122 150.954C174.419 137.315 180.739 123.855 186.85 110.84L207.575 66.6968C207.744 66.333 207.839 65.9393 207.852 65.5389C207.864 65.1384 207.796 64.7396 207.65 64.3658C207.504 63.9923 207.282 63.6516 207.001 63.364C206.72 63.0767 206.381 62.8482 206.01 62.6927C195.029 58.1287 184.515 52.533 174.614 45.982L174.421 45.8561C172.968 44.9028 171.466 43.8979 169.832 43.4136C168.152 42.914 166.314 42.9445 164.537 42.9731L147.531 43.2477C147.013 43.2553 146.508 43.4147 146.081 43.7053C145.654 43.9961 145.323 44.4053 145.13 44.8818L144.43 44.6053Z" fill="black"/>
<path d="M187.043 67.571C186.909 67.571 186.776 67.571 186.641 67.552C185.932 67.4853 185.327 67.1711 184.791 66.9007C184.513 66.7483 184.224 66.616 183.927 66.5046C175.972 63.7776 168.548 58.9063 161.376 54.1874C160.233 53.4409 159.094 52.6968 157.959 51.9555C157.79 51.8452 157.67 51.6723 157.628 51.4744C157.586 51.2766 157.624 51.0702 157.734 50.9005C157.845 50.7306 158.018 50.6118 158.214 50.5695C158.412 50.5274 158.62 50.5655 158.79 50.6758C159.932 51.4171 161.075 52.1631 162.218 52.9134C169.318 57.5752 176.659 62.3931 184.432 65.0573C184.797 65.1921 185.153 65.3532 185.498 65.5391C185.951 65.7714 186.378 65.9904 186.797 66.0304C187.41 66.0894 188.077 65.92 188.724 65.7562L197.26 63.5929C197.357 63.5677 197.458 63.5622 197.557 63.5761C197.656 63.5902 197.751 63.6235 197.839 63.6746C197.925 63.7254 197.999 63.7928 198.06 63.873C198.121 63.953 198.165 64.0442 198.189 64.1413C198.214 64.2382 198.22 64.3394 198.207 64.4386C198.191 64.5378 198.159 64.6332 198.108 64.7195C198.056 64.8057 197.989 64.8811 197.91 64.9415C197.83 65.0017 197.738 65.0455 197.641 65.0706L189.086 67.2377C188.421 67.4337 187.734 67.5457 187.043 67.571ZM154.16 49.4265C154.019 49.4267 153.88 49.3871 153.762 49.3123C152.583 48.5886 151.497 47.9411 150.442 47.3375C150.355 47.2874 150.278 47.2207 150.218 47.1413C150.157 47.0619 150.112 46.9713 150.086 46.8745C150.06 46.7778 150.054 46.6769 150.066 46.5776C150.079 46.4782 150.112 46.3825 150.162 46.2958C150.212 46.209 150.278 46.1328 150.358 46.0719C150.437 46.0107 150.528 45.966 150.625 45.9401C150.722 45.914 150.823 45.9073 150.922 45.9203C151.021 45.9334 151.116 45.9658 151.204 46.0159C152.272 46.6272 153.371 47.2822 154.564 48.0154C154.704 48.1023 154.815 48.2329 154.874 48.3877C154.935 48.5423 154.943 48.7126 154.899 48.8724C154.853 49.0321 154.756 49.1729 154.624 49.2728C154.491 49.3728 154.329 49.4269 154.164 49.4265H154.16ZM156.805 141.101C156.702 141.101 156.601 141.081 156.508 141.042C156.415 141.003 156.333 140.946 156.262 140.875C156.192 140.803 156.137 140.719 156.099 140.626C156.06 140.533 156.041 140.434 156.043 140.333C156.043 140.233 156.064 140.134 156.104 140.042C157.076 137.757 157.662 135.992 158.407 133.758C159.69 129.904 161.454 124.617 166.444 112.81L183.693 71.9662C183.773 71.7826 183.921 71.6381 184.108 71.564C184.294 71.4897 184.502 71.4918 184.687 71.5697C184.871 71.6476 185.018 71.795 185.094 71.9799C185.17 72.165 185.17 72.3728 185.096 72.5585L167.851 113.401C162.88 125.168 161.132 130.412 159.852 134.244C159.09 136.506 158.502 138.294 157.506 140.638C157.447 140.776 157.35 140.893 157.224 140.975C157.1 141.057 156.954 141.101 156.805 141.101Z" fill="black"/>
<path d="M148.306 65.5376C148.711 64.5016 149.205 63.367 150.22 62.9148C151.311 62.4238 152.566 62.9148 153.665 63.4134L171.848 71.6318C172.83 72.0763 173.882 72.5846 174.388 73.5452C175.086 74.875 174.468 76.4908 173.842 77.8573C167.639 91.4011 160.821 104.635 153.393 117.557C153.156 117.969 152.892 118.406 152.461 118.599C151.872 118.862 151.194 118.582 150.612 118.303L131.022 108.983C132.219 106.664 133.702 104.376 134.322 101.832C135.005 99.0622 136.248 96.4201 137.283 93.7663L144.365 75.6578L146.353 70.5552L147.364 67.9671C147.613 67.3158 148.306 66.2295 148.306 65.5376Z" fill="#1B5EC9"/>
<path d="M141.063 107.019C140.592 107.9 141.201 109.04 142.16 109.476C143.12 109.913 144.287 109.771 145.271 109.386C146.469 108.917 147.556 108.012 147.782 106.836C147.909 106.067 147.716 105.283 147.241 104.64C146.152 103.113 143.71 102.561 141.977 103.458C140.244 104.356 139.48 106.551 140.33 108.201L141.063 107.019Z" fill="black"/>
<path d="M148.283 78.0448L142.493 95.0729C142.303 95.6028 142.131 96.1708 142.274 96.7121C142.465 97.4288 143.157 97.8748 143.8 98.2483C146.369 99.7426 148.989 101.157 151.659 102.493C152.349 102.84 153.135 103.189 153.869 102.945C154.506 102.731 154.918 102.127 155.279 101.561C159.89 94.3027 163.994 86.735 167.562 78.912C167.867 78.2411 168.168 77.4501 167.825 76.7983C167.6 76.3732 167.152 76.1217 166.729 75.8948L157.365 70.8611C155.761 69.9977 152.355 68.3223 151.11 70.5085C150.584 71.431 150.301 72.567 149.906 73.5581C149.307 75.0295 148.798 76.5372 148.283 78.0448Z" fill="white"/>
<path d="M35.6343 109.361C34.4202 107.124 33.1776 104.631 33.7313 102.146C34.2642 99.7174 36.3631 97.9839 38.4069 96.5681C43.1261 93.3046 48.2526 90.6785 53.4001 88.1457C75.1491 77.4473 97.5906 68.2183 120.574 60.5209C123.238 59.6304 126.195 58.7664 128.773 59.8759C132.062 61.2897 133.304 65.225 134.126 68.7073C139.82 92.8098 143.325 117.369 146.825 141.886C147.455 146.297 149.765 164.742 150.06 169.188C150.148 170.504 79.2705 171.661 75.6549 171.254C73.2363 170.982 71.7177 169.437 70.3724 167.524C67.9728 164.111 65.8053 160.508 63.5751 156.98C58.9447 149.654 54.4301 142.256 50.0319 134.786C45.6336 127.317 41.3513 119.781 37.1852 112.18C36.6662 111.24 36.1494 110.3 35.6343 109.361Z" fill="#FACBDF"/>
<path d="M101.549 161.589C102.46 163.32 103.449 165.13 105.12 166.174C106.792 167.219 109.366 167.126 110.411 165.48C111.837 163.231 109.61 160.544 107.807 158.577C105.823 156.411 104.176 153.97 102.595 151.506C88.4453 129.501 78.7924 105.032 69.543 80.6292C69.0257 80.7833 67.7808 80.9089 67.4044 81.2838C66.9932 81.6909 67.277 82.2009 67.4217 82.7146C67.8194 84.134 68.2311 85.5502 68.6571 86.9634C69.5063 89.7857 70.4071 92.5923 71.3593 95.383C73.2547 100.941 75.3413 106.434 77.5726 111.866C79.8173 117.335 82.205 122.742 84.7142 128.101C87.2234 133.459 89.7964 138.743 92.4542 144.009C95.1121 149.276 97.8587 154.554 100.609 159.802C100.918 160.396 101.227 160.995 101.549 161.589Z" fill="#FF5400"/>
<path d="M137.946 92.9476C139.195 94.2954 139.917 96.0435 139.981 97.875C108.823 107.454 78.6904 120.057 50.0176 135.502C50.3686 135.24 46.7655 128.329 47.0497 126.917C47.2957 125.702 48.4402 125.221 49.474 124.777C51.1169 124.073 52.7618 123.378 54.4085 122.692C61.021 119.913 67.6695 117.222 74.3544 114.621C81.0394 112.019 87.7566 109.504 94.5064 107.074C101.259 104.652 108.043 102.325 114.86 100.092C121.678 97.8599 128.528 95.7289 135.411 93.7C136.257 93.4433 137.102 93.1926 137.946 92.9476Z" fill="#FF5400"/>
<path d="M60.6955 106.24C60.2863 106.24 59.8173 106.263 59.5548 106.575C59.2923 106.886 59.3425 107.276 59.3908 107.646C60.0252 112.388 61.9455 116.873 64.9496 120.631C65.4418 121.245 66.0228 121.874 66.8026 122.026C67.7484 122.216 68.6575 121.646 69.4566 121.11C77.5073 115.755 86.61 111.443 96.3071 110.848L85.4654 95.7674C84.7261 94.7393 83.4368 93.5877 82.3674 94.2756C81.9274 94.5588 81.715 95.0757 81.5394 95.564C80.7104 97.8621 80.1003 100.231 79.7173 102.641C79.3545 104.921 79.5996 107.352 79.1267 109.585C78.565 112.236 76.7352 110.649 75.1274 109.828C73.0127 108.75 70.7851 107.902 68.4838 107.299C65.9417 106.632 63.326 106.276 60.6955 106.24Z" fill="#FF5400"/>
<path d="M65.1907 142.511C64.8437 144.354 64.6893 146.553 66.0524 147.82L71.0394 142.294C71.5827 141.689 72.1699 141.057 72.9458 140.84C74.3432 140.453 75.7253 141.546 76.5679 142.742C77.4105 143.938 78.0778 145.357 79.3169 146.122C79.6297 146.344 80.0104 146.445 80.3902 146.407C80.6729 146.341 80.9316 146.196 81.1375 145.988C82.3385 144.884 82.5482 143.081 82.6492 141.431C82.9272 136.84 82.9413 132.237 82.6912 127.644C82.564 125.346 82.3734 123.055 82.1192 120.771C81.8867 118.705 81.8791 116.163 81.0536 114.239C80.291 112.45 79.2025 113.019 78.2722 114.285C77.1551 115.803 76.0665 117.367 74.9971 118.924C70.137 126 66.7951 134.036 65.1888 142.511H65.1907Z" fill="#FF5400"/>
<path d="M235.821 144.461C235.768 144.46 235.716 144.455 235.664 144.443C235.465 144.402 235.29 144.283 235.179 144.114C235.068 143.944 235.028 143.738 235.07 143.539C235.298 142.448 237.219 135.658 238.151 133.137C238.181 133.038 238.233 132.947 238.3 132.869C238.367 132.791 238.452 132.727 238.544 132.682C238.638 132.636 238.739 132.61 238.843 132.605C238.946 132.599 239.05 132.615 239.146 132.651C239.244 132.686 239.332 132.741 239.408 132.812C239.483 132.883 239.543 132.968 239.585 133.063C239.627 133.158 239.648 133.26 239.648 133.364C239.648 133.467 239.629 133.569 239.589 133.665C238.701 136.071 236.788 142.811 236.571 143.851C236.534 144.023 236.441 144.177 236.304 144.288C236.168 144.4 235.998 144.46 235.821 144.461ZM214.156 91.2222C213.639 91.2299 213.135 91.0758 212.709 90.7816C212.285 90.4872 211.965 90.0679 211.792 89.5822C211.62 89.0966 211.607 88.5693 211.75 88.0748C211.894 87.5803 212.191 87.1433 212.598 86.8258C212.868 86.5966 213.186 86.4271 213.528 86.3283C213.869 86.2296 214.227 86.2036 214.58 86.2524C214.705 86.2724 214.822 86.3229 214.923 86.3994C215.023 86.4756 215.104 86.5754 215.155 86.6901C215.468 86.7964 215.752 86.976 215.98 87.2138C216.21 87.4516 216.379 87.7406 216.472 88.0568C216.574 88.3978 216.597 88.757 216.543 89.1083C216.488 89.4598 216.356 89.7947 216.154 90.0887C215.962 90.3924 215.706 90.6503 215.401 90.8434C215.098 91.0362 214.755 91.1599 214.398 91.205C214.319 91.2165 214.237 91.2222 214.156 91.2222ZM213.986 87.7911C213.832 87.8326 213.689 87.9069 213.568 88.009C213.46 88.091 213.37 88.1942 213.305 88.3122C213.238 88.4303 213.198 88.5607 213.184 88.6952C213.184 88.8311 213.215 88.9655 213.271 89.089C213.328 89.2127 213.411 89.3228 213.514 89.412C213.608 89.5063 213.719 89.5795 213.844 89.6269C213.969 89.6745 214.101 89.6949 214.233 89.6873C214.364 89.6659 214.49 89.616 214.599 89.5414C214.711 89.4669 214.803 89.3692 214.872 89.2553C214.946 89.1496 214.998 89.029 215.023 88.9015C215.046 88.7742 215.042 88.6432 215.012 88.5175C214.944 88.3015 214.768 88.1352 214.642 88.1352C214.511 88.1386 214.381 88.1088 214.266 88.0486C214.151 87.9884 214.051 87.8997 213.98 87.7911H213.986Z" fill="black"/>
<path d="M41.0939 108.092C41.7964 109.164 43.3971 108.493 43.232 107.209C43.067 105.977 42.8347 104.719 43.0401 103.524C43.4086 101.433 45.0727 99.8639 46.804 98.7524C48.6792 97.5485 50.7751 96.6597 52.2857 94.9583C52.4033 94.8309 52.4947 94.6798 52.5542 94.5141C52.6135 94.3485 52.6398 94.1718 52.6312 93.9952C52.5697 93.1505 51.7214 92.9539 51.0285 92.9479C47.2972 92.9178 43.8578 95.1248 40.9058 97.2957C39.6486 98.2187 38.282 99.587 38.0939 101.282C37.9404 102.675 38.7388 103.963 39.3837 105.111C39.9384 106.096 40.4816 107.093 41.0689 108.058C41.0764 108.07 41.0847 108.081 41.0939 108.092Z" fill="white"/>
<path d="M64.2369 166.718C71.1515 190.732 76.2056 223.57 84.9768 238.757C86.1764 240.842 86.3502 243.451 87.9642 245.233C91.0987 248.687 96.4412 248.744 101.119 248.541L205.361 244.021C207.965 243.909 210.601 243.792 213.097 243.049C218.487 241.445 222.674 237.045 225.261 232.084C227.847 227.122 229.046 221.583 230.227 216.119C234.486 196.288 238.746 176.455 243.007 156.623C236.658 156.43 230.309 156.269 223.96 156.138C217.611 156.007 211.26 155.906 204.908 155.833C198.531 155.757 192.151 155.707 185.773 155.683C179.422 155.656 173.071 155.652 166.72 155.67C160.369 155.687 154.018 155.721 147.666 155.772C141.313 155.823 134.961 155.886 128.611 155.961C122.261 156.037 115.909 156.126 109.556 156.229C103.176 156.329 96.7971 156.435 90.4187 156.551C84.0682 156.663 77.7171 156.779 71.3654 156.902C69.1497 156.943 66.3992 156.608 64.2885 157.47C62.0652 158.38 62.7127 160.705 63.1425 162.566C63.45 163.971 63.8435 165.344 64.2369 166.718Z" fill="#1B5EC9"/>
<path d="M29.0914 202.693C27.8337 202.693 26.6616 202.07 25.8358 201.559C22.3571 199.39 19.5551 196.282 17.7489 192.591C17.199 191.459 16.6073 189.961 16.8565 188.386C17.1914 186.314 18.8069 184.907 20.4338 183.643C23.7027 181.101 27.0745 178.599 30.4557 176.204C36.4571 171.955 42.702 167.891 49.0193 164.127C50.5948 163.189 52.2026 162.25 53.8029 161.341L54.271 161.067C55.2908 160.465 56.5543 159.714 57.8862 159.756C59.0279 159.794 59.536 160.358 59.7586 160.826C60.8108 163.032 57.3059 167.75 57.1556 167.95L33.1805 199.935C32.4917 200.854 31.4528 202.242 29.8868 202.599C29.6259 202.658 29.3591 202.691 29.0914 202.693ZM20.9095 184.253L21.3642 184.859C19.979 185.935 18.6052 187.115 18.3578 188.638C18.1675 189.785 18.6661 190.993 19.1189 191.922C20.7981 195.353 23.4023 198.241 26.6349 200.258C27.8755 201.022 28.7756 201.29 29.55 201.112C30.5014 200.898 31.2302 200.002 31.9646 199.021L55.9397 167.037C57.207 165.343 58.7939 162.344 58.3867 161.493C58.3258 161.369 58.1412 161.302 57.8368 161.291C56.9558 161.264 55.9435 161.864 55.0473 162.39C54.8799 162.489 54.7162 162.581 54.5583 162.677C52.9676 163.583 51.3673 164.516 49.8013 165.448C43.5221 169.191 37.3076 173.234 31.3443 177.46C27.9726 179.842 24.618 182.33 21.3642 184.859L20.9095 184.253ZM269.522 197.326C269.381 197.326 269.238 197.314 269.099 197.291C268.089 197.123 267.387 196.385 266.816 195.705C263.391 191.643 260.602 187.057 257.902 182.621L248.388 166.985C248.123 166.549 247.838 166.115 247.537 165.657C246.565 164.173 245.56 162.64 245.12 160.893C244.808 159.658 244.496 157.407 245.903 156.226C247.558 154.838 249.868 156.327 251.249 157.216C251.421 157.327 251.58 157.43 251.721 157.516C253.769 158.766 255.835 160.138 257.862 161.597C264.974 166.714 271.974 173.113 279.258 181.162C280.919 182.995 282.737 185.436 282.055 188.044C281.565 189.922 279.991 191.115 278.421 192.176C276.271 193.633 274.064 195.07 271.862 196.448C271.149 196.901 270.384 197.326 269.522 197.326ZM259.213 181.827C261.876 186.224 264.643 190.75 267.988 194.722C268.405 195.215 268.852 195.703 269.352 195.787C269.853 195.871 270.458 195.536 271.065 195.156C273.251 193.787 275.441 192.36 277.58 190.915C278.912 190.016 280.244 189.024 280.59 187.665C281.083 185.778 279.639 183.842 278.139 182.198C270.928 174.231 264.008 167.901 256.982 162.847C254.986 161.411 252.954 160.06 250.939 158.833C250.787 158.741 250.618 158.63 250.433 158.512C249.406 157.85 247.684 156.74 246.886 157.409C246.236 157.955 246.315 159.379 246.603 160.528C246.983 162.025 247.914 163.449 248.816 164.825C249.111 165.274 249.415 165.739 249.695 166.198L259.213 181.827Z" fill="black"/>
<path d="M100.62 215.323C100.452 215.323 100.289 215.266 100.156 215.164C100.023 215.062 99.9282 214.918 99.8862 214.756C96.575 202.071 94.1512 191.725 91.0903 177.173C91.0385 177.09 91.0032 176.997 90.986 176.901L90.7167 175.39C90.6871 175.197 90.7338 174.998 90.847 174.84C90.96 174.681 91.1307 174.571 91.3234 174.534C91.5159 174.496 91.7152 174.536 91.8796 174.641C92.044 174.749 92.1609 174.913 92.2054 175.104C95.4295 190.572 97.9177 201.217 101.356 214.382C101.381 214.478 101.387 214.578 101.373 214.677C101.359 214.775 101.326 214.869 101.276 214.954C101.225 215.041 101.158 215.115 101.079 215.175C100.999 215.236 100.908 215.279 100.812 215.304C100.749 215.319 100.684 215.325 100.62 215.323ZM128.775 202.284C128.587 202.284 128.404 202.216 128.264 202.09C128.124 201.965 128.036 201.791 128.017 201.604L125.402 175.69C125.273 174.403 125.125 172.945 124.427 171.841C124.37 171.758 124.33 171.664 124.31 171.564C124.291 171.464 124.291 171.362 124.312 171.263C124.332 171.163 124.373 171.069 124.431 170.986C124.489 170.902 124.563 170.832 124.649 170.778C124.735 170.723 124.831 170.687 124.932 170.672C125.032 170.655 125.135 170.659 125.234 170.683C125.332 170.706 125.425 170.749 125.507 170.81C125.589 170.87 125.657 170.948 125.709 171.035C126.598 172.438 126.765 174.086 126.911 175.539L129.53 201.451C129.54 201.549 129.531 201.65 129.502 201.746C129.474 201.84 129.427 201.929 129.363 202.007C129.3 202.084 129.223 202.146 129.135 202.194C129.047 202.241 128.951 202.271 128.851 202.281L128.775 202.284ZM129.891 213.817C129.705 213.819 129.525 213.753 129.385 213.63C129.245 213.507 129.155 213.339 129.132 213.156L128.504 208.206C128.492 208.107 128.499 208.007 128.525 207.911C128.552 207.816 128.597 207.726 128.658 207.648C128.719 207.569 128.795 207.503 128.881 207.454C128.968 207.405 129.063 207.374 129.162 207.361C129.261 207.348 129.362 207.355 129.458 207.382C129.554 207.408 129.644 207.454 129.722 207.514C129.801 207.575 129.867 207.65 129.917 207.737C129.966 207.822 129.998 207.918 130.01 208.017L130.638 212.969C130.65 213.067 130.643 213.167 130.617 213.263C130.591 213.358 130.546 213.449 130.484 213.526C130.423 213.605 130.347 213.671 130.261 213.721C130.174 213.77 130.079 213.8 129.98 213.813L129.891 213.817ZM158.714 216.447C158.513 216.447 158.319 216.368 158.177 216.226C158.035 216.084 157.955 215.891 157.955 215.691L158.185 174.466C158.185 174.265 158.264 174.073 158.407 173.931C158.549 173.789 158.742 173.71 158.943 173.71C159.144 173.71 159.338 173.789 159.48 173.931C159.622 174.073 159.702 174.265 159.702 174.466L159.48 215.686C159.48 215.786 159.461 215.886 159.423 215.978C159.385 216.071 159.328 216.156 159.256 216.226C159.186 216.298 159.101 216.352 159.008 216.39C158.915 216.428 158.814 216.447 158.714 216.447ZM158.754 227.33C158.553 227.33 158.359 227.25 158.217 227.109C158.075 226.967 157.995 226.774 157.995 226.574V223.606C157.995 223.405 158.075 223.213 158.217 223.071C158.359 222.929 158.553 222.85 158.754 222.85C158.955 222.85 159.148 222.929 159.29 223.071C159.433 223.213 159.512 223.405 159.512 223.606V226.574C159.512 226.774 159.433 226.967 159.29 227.109C159.148 227.25 158.955 227.33 158.754 227.33ZM188.46 196.949C188.421 196.949 188.381 196.945 188.343 196.939C188.144 196.909 187.965 196.802 187.846 196.639C187.728 196.478 187.679 196.276 187.709 196.078C189.062 187.311 190.713 178.441 192.619 169.716C192.64 169.62 192.68 169.527 192.737 169.446C192.794 169.364 192.866 169.295 192.949 169.24C193.035 169.187 193.128 169.151 193.226 169.132C193.323 169.115 193.423 169.117 193.522 169.138C193.619 169.159 193.712 169.198 193.793 169.255C193.875 169.312 193.945 169.383 193.998 169.468C194.053 169.552 194.089 169.644 194.108 169.742C194.125 169.841 194.123 169.941 194.102 170.037C192.206 178.728 190.556 187.57 189.208 196.299C189.181 196.478 189.092 196.643 188.955 196.762C188.819 196.881 188.642 196.947 188.46 196.949ZM213.691 210.837C213.633 210.837 213.572 210.832 213.515 210.817C213.418 210.794 213.325 210.752 213.244 210.696C213.162 210.637 213.094 210.564 213.041 210.48C212.988 210.395 212.952 210.301 212.937 210.203C212.919 210.104 212.923 210.004 212.946 209.908C216.104 196.667 218.531 183.264 220.219 169.759C220.23 169.661 220.263 169.565 220.312 169.48C220.361 169.393 220.428 169.317 220.507 169.257C220.585 169.196 220.674 169.151 220.771 169.125C220.868 169.098 220.968 169.091 221.067 169.104C221.165 169.117 221.26 169.147 221.348 169.196C221.435 169.245 221.511 169.312 221.571 169.391C221.632 169.468 221.678 169.559 221.704 169.654C221.731 169.75 221.736 169.85 221.725 169.948C220.033 183.508 217.598 196.966 214.429 210.261C214.389 210.426 214.294 210.571 214.16 210.677C214.027 210.781 213.862 210.837 213.691 210.837Z" fill="white"/>
<path d="M67.264 208.873C64.332 210.789 61.3444 212.875 59.5756 215.9C57.8068 218.925 57.6094 223.157 60.0489 225.671C61.6797 227.349 64.3282 228.196 65.0851 230.408C65.4301 231.416 65.294 232.516 65.3323 233.575C65.4741 237.451 68.2318 241.096 71.9227 242.286C72.4344 242.451 73.0035 242.602 73.314 243.052C73.6244 243.502 73.5746 244.098 73.565 244.648C73.4999 248.987 78.0761 252.755 82.3247 251.857C81.8418 255.152 85.0076 258.081 88.3038 258.576C91.5999 259.07 94.8807 257.809 97.9565 256.539C108.688 252.083 117.668 244.815 126.863 237.7C132.089 233.655 130.165 228.222 124.228 231.399L106.17 240.966C103.522 242.115 100.716 243.265 97.8913 243.585C96.4387 243.748 95.6799 241.903 96.8431 241.016C105.683 234.274 116.319 230.081 125.654 223.95C131.753 219.944 129.594 216.479 128.409 215.598C127.091 214.609 124.879 214.931 123.308 215.429C112.822 218.755 102.42 225.916 92.9529 230.393C88.9688 232.276 84.7585 230.728 87.1827 227.969C98.9511 220.295 104.047 216.54 115.819 208.867C117.632 207.685 120.549 205.063 118.793 201.72C116.804 197.934 113.274 199.421 106.875 203.183C97.8933 208.465 92.4489 212.109 83.1756 216.866C78.3195 219.356 75.3913 217.603 80.4045 213.812C86.9297 208.873 92.3205 204.706 99.5011 200.482C102.247 198.865 107.5 196.565 106.875 192.524C106.684 191.287 105.262 187.628 99.5931 190.085C92.4086 193.206 85.366 197.963 78.5897 201.892C74.7545 204.115 70.9793 206.442 67.264 208.873Z" fill="#FBD2B5"/>
<path d="M69.4726 228.308C69.3568 228.308 69.2425 228.281 69.1386 228.232C69.0344 228.18 68.9432 228.108 68.8717 228.017C68.1748 227.128 67.623 226.137 67.2367 225.078C67.2026 224.984 67.1871 224.884 67.1917 224.785C67.1961 224.684 67.2203 224.587 67.2627 224.495C67.305 224.406 67.3649 224.324 67.439 224.256C67.513 224.189 67.5994 224.136 67.6936 224.102C67.7879 224.069 67.8878 224.054 67.988 224.058C68.0882 224.062 68.1864 224.086 68.2772 224.128C68.3678 224.17 68.4495 224.231 68.517 224.303C68.5847 224.378 68.6372 224.465 68.6714 224.558C69.0022 225.466 69.4755 226.316 70.0735 227.077C70.1621 227.189 70.217 227.324 70.2321 227.467C70.2473 227.608 70.2222 227.752 70.1594 227.88C70.0968 228.009 69.9991 228.116 69.8776 228.192C69.7561 228.268 69.6159 228.308 69.4726 228.308ZM78.9524 241.525C78.8492 241.525 78.7471 241.504 78.6525 241.464C78.5576 241.422 78.4722 241.363 78.401 241.289C77.7095 240.568 77.1232 239.754 76.6593 238.871C76.5654 238.692 76.5465 238.483 76.607 238.291C76.6675 238.099 76.8023 237.937 76.9817 237.844C77.161 237.751 77.3703 237.732 77.5635 237.793C77.7566 237.852 77.918 237.987 78.0118 238.166C78.4083 238.923 78.9106 239.621 79.5037 240.237C79.6073 240.346 79.6769 240.481 79.7038 240.627C79.7307 240.774 79.7137 240.926 79.655 241.063C79.5962 241.2 79.4982 241.318 79.3734 241.399C79.2484 241.481 79.1019 241.525 78.9524 241.525ZM87.9455 250.846C87.7802 250.846 87.6196 250.793 87.4876 250.694C86.7648 250.152 86.1226 249.513 85.5799 248.792C85.5169 248.712 85.4705 248.621 85.4434 248.524C85.4165 248.425 85.4093 248.324 85.4223 248.223C85.4354 248.122 85.4684 248.025 85.5196 247.938C85.5707 247.85 85.639 247.774 85.7203 247.713C85.8013 247.652 85.8941 247.607 85.9925 247.582C86.0911 247.557 86.1936 247.553 86.2941 247.569C86.3947 247.584 86.491 247.618 86.5776 247.671C86.6644 247.725 86.7396 247.795 86.7989 247.877C87.2531 248.48 87.7907 249.016 88.3957 249.469C88.5239 249.564 88.6185 249.699 88.6664 249.852C88.7141 250.004 88.7124 250.167 88.6614 250.319C88.6105 250.472 88.513 250.603 88.3829 250.696C88.2526 250.789 88.0962 250.839 87.9359 250.839L87.9455 250.846ZM101.132 197.313C100.456 197.326 99.7843 197.203 99.159 196.946C98.7454 196.761 98.3735 196.497 98.0656 196.164C97.7579 195.833 97.5204 195.443 97.3676 195.019C97.2495 194.699 97.2003 194.361 97.223 194.022C97.2457 193.682 97.3397 193.353 97.4992 193.052C97.5435 192.957 97.6066 192.873 97.6849 192.805C97.7629 192.736 97.8544 192.683 97.9535 192.652C98.0527 192.62 98.1574 192.607 98.2612 192.618C98.365 192.628 98.4657 192.658 98.5571 192.708C98.6484 192.757 98.7288 192.826 98.7927 192.907C98.8566 192.991 98.9031 193.084 98.9291 193.185C98.955 193.286 98.9602 193.391 98.944 193.493C98.9277 193.596 98.8905 193.695 98.8346 193.782C98.7784 193.897 98.7467 194.022 98.7417 194.15C98.7368 194.279 98.7587 194.405 98.806 194.524C98.8892 194.749 99.0163 194.956 99.1799 195.133C99.3436 195.308 99.5409 195.451 99.7599 195.55C100.601 195.913 101.597 195.805 102.812 195.628C102.911 195.612 103.013 195.618 103.11 195.643C103.207 195.668 103.299 195.711 103.379 195.77C103.459 195.829 103.527 195.905 103.579 195.991C103.63 196.077 103.664 196.172 103.678 196.271C103.693 196.37 103.688 196.47 103.663 196.567C103.639 196.664 103.595 196.756 103.535 196.836C103.476 196.916 103.4 196.984 103.314 197.035C103.228 197.087 103.133 197.119 103.034 197.134C102.405 197.239 101.769 197.3 101.132 197.313ZM114.047 207.664H113.995C112.775 207.582 111.729 207.104 111.054 206.321C110.203 205.337 110.062 203.897 110.716 202.896C110.769 202.809 110.839 202.731 110.922 202.672C111.005 202.611 111.099 202.567 111.199 202.545C111.299 202.522 111.403 202.518 111.504 202.537C111.605 202.554 111.702 202.592 111.788 202.647C111.874 202.704 111.948 202.777 112.005 202.862C112.063 202.946 112.102 203.043 112.121 203.144C112.141 203.245 112.139 203.347 112.117 203.448C112.096 203.547 112.054 203.642 111.994 203.726C111.712 204.158 111.803 204.867 112.21 205.328C112.616 205.788 113.301 206.089 114.098 206.146C114.301 206.153 114.492 206.239 114.631 206.387C114.769 206.534 114.843 206.73 114.836 206.931C114.829 207.135 114.742 207.325 114.594 207.462C114.446 207.601 114.249 207.675 114.047 207.667V207.664ZM123.515 223.521C123.395 223.521 123.277 223.493 123.17 223.438C122.025 222.858 121.194 221.982 120.822 220.965C120.356 219.694 120.696 218.248 121.65 217.451C121.805 217.322 122.005 217.259 122.207 217.276C122.409 217.295 122.595 217.392 122.725 217.546C122.855 217.7 122.918 217.902 122.901 218.102C122.883 218.303 122.785 218.49 122.63 218.619C122.174 219 122.014 219.783 122.249 220.442C122.483 221.1 123.057 221.672 123.855 222.078C124.008 222.156 124.131 222.281 124.203 222.437C124.275 222.593 124.293 222.768 124.253 222.934C124.212 223.101 124.117 223.249 123.982 223.356C123.846 223.461 123.68 223.518 123.508 223.518L123.515 223.521ZM125.598 236.008C124.987 236.001 124.4 235.771 123.95 235.358C123.686 235.131 123.474 234.85 123.327 234.534C123.181 234.218 123.104 233.876 123.101 233.528C123.102 233.427 123.123 233.33 123.162 233.237C123.201 233.145 123.258 233.062 123.329 232.991C123.401 232.921 123.486 232.866 123.578 232.83C123.671 232.791 123.771 232.772 123.871 232.772C123.971 232.774 124.07 232.795 124.162 232.833C124.255 232.873 124.338 232.93 124.408 233.001C124.479 233.073 124.534 233.157 124.572 233.25C124.609 233.341 124.628 233.44 124.627 233.541C124.648 233.804 124.769 234.047 124.966 234.222C125.163 234.397 125.421 234.49 125.684 234.481C125.885 234.456 126.088 234.511 126.248 234.635C126.408 234.758 126.512 234.941 126.537 235.141C126.562 235.341 126.507 235.542 126.383 235.702C126.258 235.862 126.076 235.966 125.875 235.991C125.783 236.003 125.691 236.008 125.598 236.008Z" fill="black"/>
<path d="M240.836 208.872C243.722 210.788 246.661 212.874 248.404 215.899C250.147 218.924 250.34 223.156 247.936 225.67C246.333 227.348 243.726 228.195 242.981 230.407C242.641 231.415 242.775 232.515 242.737 233.574C242.598 237.45 239.883 241.096 236.25 242.285C235.746 242.45 235.184 242.602 234.881 243.052C234.577 243.502 234.624 244.098 234.633 244.648C234.698 248.987 230.193 252.755 226.011 251.857C226.486 255.152 223.37 258.081 220.123 258.576C216.877 259.07 213.651 257.809 210.623 256.539C200.059 252.083 191.22 244.814 182.169 237.699C177.024 233.655 178.918 228.221 184.762 231.398L202.538 240.965C205.145 242.115 207.907 243.264 210.685 243.584C212.117 243.747 212.862 241.902 211.719 241.015C203.017 234.281 192.548 230.082 183.359 223.951C177.355 219.945 179.481 216.48 180.646 215.598C181.944 214.61 184.121 214.932 185.668 215.43C195.99 218.755 206.23 225.917 215.549 230.394C219.47 232.277 223.615 230.729 221.229 227.971C209.644 220.296 204.628 216.541 193.04 208.868C191.254 207.686 188.384 205.063 190.112 201.72C192.07 197.935 195.545 199.421 201.842 203.184C210.685 208.466 216.045 212.11 225.173 216.867C229.953 219.357 232.834 217.604 227.901 213.813C221.478 208.874 216.171 204.707 209.103 200.483C206.4 198.866 201.229 196.565 201.842 192.524C202.031 191.287 203.432 187.627 209.01 190.085C216.082 193.206 223.013 197.963 229.685 201.893C233.462 204.113 237.178 206.441 240.836 208.872Z" fill="#FBD2B5"/>
<path d="M238.271 228.173C238.128 228.173 237.987 228.133 237.867 228.057C237.745 227.98 237.648 227.871 237.587 227.743C237.524 227.613 237.5 227.469 237.515 227.326C237.53 227.184 237.585 227.048 237.673 226.935C238.269 226.17 238.742 225.314 239.073 224.401C239.107 224.308 239.159 224.22 239.227 224.145C239.294 224.072 239.376 224.011 239.466 223.969C239.557 223.927 239.656 223.902 239.755 223.898C239.856 223.894 239.955 223.91 240.048 223.942C240.144 223.977 240.229 224.03 240.304 224.097C240.378 224.166 240.437 224.248 240.479 224.338C240.521 224.43 240.546 224.528 240.55 224.629C240.555 224.729 240.54 224.83 240.506 224.924C240.119 225.99 239.568 226.987 238.873 227.88C238.801 227.972 238.709 228.045 238.606 228.097C238.502 228.146 238.387 228.173 238.271 228.173ZM228.807 241.469C228.656 241.469 228.511 241.425 228.386 241.343C228.262 241.261 228.163 241.142 228.106 241.004C228.046 240.867 228.029 240.714 228.056 240.566C228.083 240.419 228.153 240.283 228.256 240.174C228.847 239.554 229.35 238.852 229.746 238.09C229.839 237.91 230.001 237.774 230.194 237.715C230.386 237.654 230.595 237.673 230.775 237.766C230.954 237.86 231.087 238.023 231.148 238.216C231.209 238.409 231.19 238.62 231.097 238.8C230.632 239.688 230.047 240.507 229.357 241.232C229.287 241.307 229.201 241.366 229.106 241.408C229.01 241.448 228.909 241.469 228.807 241.469ZM219.824 250.846C219.664 250.846 219.508 250.797 219.378 250.701C219.249 250.607 219.152 250.475 219.1 250.322C219.051 250.171 219.049 250.006 219.096 249.853C219.144 249.7 219.239 249.564 219.367 249.469C219.971 249.013 220.506 248.474 220.962 247.867C221.085 247.71 221.264 247.607 221.463 247.582C221.659 247.555 221.859 247.609 222.019 247.729C222.177 247.85 222.284 248.028 222.312 248.225C222.343 248.424 222.295 248.625 222.179 248.787C221.638 249.513 220.996 250.158 220.274 250.701C220.142 250.797 219.986 250.846 219.824 250.846ZM206.652 196.994C206.014 196.98 205.376 196.919 204.747 196.814C204.648 196.799 204.553 196.764 204.467 196.712C204.382 196.661 204.305 196.594 204.246 196.513C204.187 196.431 204.143 196.339 204.119 196.242C204.094 196.144 204.09 196.043 204.103 195.943C204.119 195.844 204.153 195.748 204.204 195.662C204.256 195.576 204.323 195.501 204.404 195.442C204.484 195.381 204.576 195.338 204.673 195.314C204.77 195.289 204.871 195.283 204.97 195.298C206.18 195.476 207.174 195.585 208.018 195.22C208.237 195.12 208.434 194.977 208.598 194.801C208.761 194.623 208.887 194.414 208.971 194.188C209.019 194.068 209.04 193.941 209.036 193.811C209.03 193.683 208.998 193.557 208.942 193.442C208.887 193.354 208.849 193.254 208.834 193.151C208.817 193.048 208.822 192.943 208.847 192.841C208.874 192.74 208.919 192.646 208.984 192.562C209.047 192.479 209.127 192.411 209.219 192.361C209.31 192.311 209.411 192.28 209.514 192.271C209.619 192.259 209.723 192.273 209.823 192.305C209.922 192.336 210.013 192.389 210.091 192.458C210.167 192.527 210.232 192.611 210.276 192.707C210.434 193.01 210.529 193.341 210.552 193.683C210.575 194.024 210.525 194.364 210.407 194.686C210.253 195.113 210.017 195.505 209.708 195.838C209.401 196.171 209.03 196.439 208.617 196.624C207.994 196.881 207.325 197.007 206.652 196.994ZM193.761 207.406C193.559 207.414 193.363 207.339 193.214 207.199C193.067 207.062 192.98 206.87 192.972 206.665C192.966 206.463 193.039 206.266 193.178 206.118C193.315 205.969 193.507 205.883 193.709 205.875C194.506 205.822 195.193 205.521 195.595 205.05C195.997 204.58 196.093 203.875 195.811 203.441C195.71 203.271 195.677 203.068 195.723 202.876C195.767 202.683 195.885 202.515 196.049 202.408C196.215 202.3 196.415 202.26 196.609 202.297C196.801 202.335 196.973 202.446 197.087 202.607C197.74 203.613 197.598 205.062 196.75 206.051C196.074 206.84 195.035 207.32 193.812 207.402L193.761 207.406ZM184.306 223.358C184.134 223.358 183.967 223.301 183.831 223.196C183.696 223.089 183.601 222.939 183.561 222.771C183.521 222.604 183.538 222.428 183.611 222.271C183.683 222.115 183.805 221.988 183.959 221.91C184.755 221.502 185.325 220.919 185.563 220.264C185.801 219.61 185.645 218.813 185.182 218.431C185.026 218.301 184.929 218.113 184.912 217.91C184.895 217.709 184.957 217.506 185.087 217.351C185.216 217.196 185.403 217.099 185.603 217.08C185.805 217.062 186.005 217.126 186.161 217.256C187.114 218.058 187.453 219.51 186.988 220.79C186.607 221.81 185.784 222.691 184.643 223.278C184.538 223.332 184.422 223.358 184.306 223.358ZM182.226 235.92C182.134 235.92 182.043 235.914 181.953 235.903C181.753 235.878 181.57 235.772 181.446 235.612C181.323 235.451 181.267 235.248 181.292 235.047C181.317 234.846 181.422 234.663 181.58 234.538C181.74 234.414 181.944 234.358 182.144 234.383C182.406 234.393 182.664 234.299 182.86 234.123C183.056 233.947 183.178 233.702 183.199 233.438C183.197 233.336 183.216 233.237 183.254 233.145C183.292 233.051 183.348 232.967 183.416 232.894C183.487 232.823 183.57 232.766 183.662 232.726C183.755 232.688 183.854 232.667 183.953 232.665C184.054 232.665 184.153 232.684 184.247 232.722C184.338 232.758 184.424 232.814 184.494 232.885C184.567 232.956 184.622 233.04 184.662 233.132C184.702 233.225 184.721 233.323 184.723 233.424C184.719 233.775 184.643 234.119 184.496 234.437C184.352 234.754 184.138 235.038 183.875 235.265C183.424 235.679 182.837 235.912 182.226 235.92ZM65.0248 166.876C62.5355 166.89 60.0478 166.748 57.576 166.453C56.3624 166.302 54.6688 165.933 54.0058 164.492C53.5124 163.416 53.8572 162.209 54.0649 161.486C54.2554 160.814 54.4573 160.131 54.6631 159.455C54.806 158.983 54.9431 158.454 55.0898 157.896C55.9109 154.748 57.0368 150.432 61.047 150.138C62.7616 150.009 64.5314 150.097 66.2384 150.183C67.1757 150.229 68.1434 150.279 69.0788 150.289C71.8012 150.317 74.6798 150.304 77.6345 150.25C82.7516 150.155 88.1963 149.94 94.7688 149.573C99.602 149.303 104.517 148.978 109.27 148.666L111.926 148.49C117.327 148.138 123.09 147.768 128.94 147.489C147.189 146.618 165.75 146.676 183.7 146.724L240.504 146.896C241.693 146.896 243.039 146.896 244.314 147.323C248.648 148.758 250.006 153.896 250.707 158.209C250.845 159.055 251.1 160.63 250.174 161.727C249.471 162.557 248.41 162.768 247.473 162.9C239.662 163.998 231.649 163.681 223.905 163.372L221.969 163.296C177.649 161.587 132.554 163.757 88.9469 165.855C83.6393 166.109 78.3318 166.365 73.0243 166.62C70.3876 166.752 67.7129 166.876 65.0248 166.876ZM55.5356 161.916C55.3337 162.617 55.1546 163.344 55.3946 163.857C55.6575 164.431 56.412 164.773 57.7703 164.942C62.8264 165.573 67.9739 165.324 72.9519 165.099C78.2581 164.85 83.5651 164.595 88.8726 164.333C132.512 162.228 177.65 160.064 222.026 161.775L223.962 161.849C231.639 162.155 239.584 162.471 247.259 161.392C247.949 161.294 248.654 161.164 249.01 160.743C249.444 160.228 249.338 159.296 249.201 158.464C248.568 154.575 247.387 149.961 243.832 148.785C242.796 148.44 241.63 148.438 240.502 148.434L183.694 148.274C165.764 148.22 147.223 148.163 129.018 149.039C123.179 149.318 117.426 149.686 112.031 150.04L109.375 150.214C104.612 150.528 99.7011 150.851 94.8584 151.123C88.2668 151.49 82.8049 151.697 77.6688 151.802C74.6988 151.856 71.805 151.869 69.0674 151.841C68.1053 151.831 67.1204 151.781 66.1679 151.734C64.5085 151.651 62.7921 151.565 61.1651 151.686C58.2389 151.902 57.355 155.304 56.5701 158.305C56.4196 158.879 56.2786 159.421 56.1262 159.922C55.9243 160.59 55.7261 161.262 55.5356 161.93V161.916Z" fill="black"/>
<path d="M79.454 116.916C78.9923 116.916 78.537 116.811 78.127 116.609C77.7168 116.407 77.3636 116.114 77.0973 115.755C76.7885 115.343 76.5261 114.902 76.3143 114.438L76.2267 114.265C75.7904 113.401 75.3899 112.379 75.7186 111.36C75.8555 110.976 76.0796 110.626 76.3751 110.334C76.6705 110.042 77.0299 109.816 77.428 109.671C77.525 109.634 77.6288 109.615 77.7336 109.616C77.8382 109.616 77.9418 109.637 78.038 109.676C78.1344 109.715 78.2219 109.771 78.2952 109.842C78.3687 109.914 78.4267 109.998 78.4659 110.09C78.5052 110.182 78.5249 110.281 78.5239 110.381C78.5231 110.48 78.5016 110.579 78.4607 110.671C78.4197 110.762 78.3603 110.846 78.2856 110.915C78.2111 110.985 78.1227 111.041 78.0256 111.078C77.8477 111.139 77.6856 111.235 77.5501 111.361C77.4148 111.487 77.3092 111.638 77.2407 111.806C77.0734 112.324 77.3622 113.008 77.665 113.609L77.7547 113.787C77.9214 114.157 78.1262 114.509 78.3663 114.84C78.5536 115.073 79.1194 115.788 80.5378 115.12C81.0012 114.927 81.4006 114.617 81.6933 114.223C81.8047 114.033 81.8722 113.822 81.8919 113.605C81.9114 113.387 81.8824 113.168 81.8069 112.963C81.5777 112.227 80.9343 111.584 80.0457 111.197C79.9477 111.158 79.8589 111.1 79.7848 111.027C79.7105 110.955 79.6523 110.869 79.6136 110.774C79.575 110.68 79.5564 110.579 79.5594 110.478C79.5624 110.377 79.5865 110.277 79.6306 110.185C79.6746 110.093 79.7377 110.01 79.816 109.941C79.8941 109.872 79.9862 109.819 80.0864 109.785C80.1864 109.751 80.2928 109.736 80.3992 109.741C80.5053 109.747 80.6093 109.773 80.7052 109.817C82.016 110.386 82.9743 111.374 83.3349 112.53C83.4763 112.944 83.5232 113.382 83.472 113.814C83.4208 114.247 83.2727 114.663 83.038 115.037C82.5926 115.667 81.9718 116.167 81.245 116.482C80.6908 116.755 80.078 116.904 79.454 116.916ZM75.4477 131.022C75.3955 131.023 75.3433 131.018 75.2923 131.007C75.0853 130.968 74.903 130.853 74.7853 130.686C74.6678 130.519 74.6243 130.315 74.6648 130.118C74.7644 129.633 74.8241 129.14 74.8839 128.616C74.9257 128.262 74.9696 127.892 75.0274 127.526C75.2963 125.837 75.8641 124.223 76.4219 122.663C76.9592 121.044 77.5937 119.455 78.3225 117.906C78.4127 117.723 78.5755 117.583 78.7745 117.515C78.9737 117.447 79.1931 117.457 79.3843 117.543C79.5756 117.629 79.7232 117.784 79.7945 117.974C79.8658 118.163 79.8551 118.372 79.7648 118.554C79.0357 120.023 78.4759 121.61 77.932 123.146C77.4041 124.644 76.8562 126.193 76.6092 127.752C76.5554 128.089 76.5175 128.429 76.4737 128.785C76.4119 129.316 76.3482 129.864 76.2346 130.41C76.199 130.583 76.1008 130.739 75.9571 130.851C75.8135 130.963 75.6332 131.023 75.4477 131.022ZM72.4674 123.046C72.3516 123.046 72.2375 123.022 72.1327 122.976C71.9408 122.891 71.7922 122.737 71.7193 122.549C71.6464 122.36 71.6553 122.151 71.7442 121.969C72.6419 120.122 73.8647 118.436 75.3601 116.982C75.5079 116.838 75.7099 116.756 75.9213 116.754C76.0261 116.753 76.1298 116.772 76.2271 116.809C76.3243 116.846 76.4127 116.901 76.4877 116.971C76.5624 117.04 76.6221 117.123 76.6632 117.215C76.7042 117.307 76.7259 117.405 76.7271 117.505C76.7281 117.605 76.7086 117.703 76.6695 117.796C76.6307 117.889 76.5727 117.973 76.4996 118.044C75.1314 119.374 74.0121 120.917 73.1905 122.606C73.1266 122.737 73.0246 122.848 72.8965 122.926C72.7682 123.004 72.6194 123.046 72.4674 123.046ZM88.9766 114.745C87.9275 114.723 86.8818 114.624 85.8489 114.447C85.4504 114.388 85.0679 114.333 84.7133 114.292C84.6071 114.282 84.5039 114.253 84.4099 114.205C84.3159 114.158 84.2328 114.092 84.1658 114.014C84.0987 113.935 84.0489 113.844 84.0194 113.747C83.9897 113.649 83.9812 113.547 83.9937 113.446C84.0065 113.345 84.0401 113.248 84.0931 113.16C84.1459 113.072 84.2168 112.995 84.3015 112.933C84.3864 112.872 84.4832 112.827 84.5864 112.802C84.6896 112.777 84.7972 112.771 84.9026 112.786C85.2851 112.83 85.6775 112.889 86.0979 112.949C87.8909 113.213 89.9349 113.518 91.7976 112.691C92.1825 112.525 92.5282 112.286 92.8132 111.988C93.0985 111.691 93.3175 111.342 93.4571 110.962C93.5834 110.58 93.6241 110.177 93.5765 109.78C93.5286 109.382 93.3938 108.998 93.1802 108.653C93.0718 108.48 93.0402 108.273 93.0919 108.078C93.1435 107.883 93.2746 107.716 93.4561 107.613C93.6376 107.51 93.8548 107.479 94.0596 107.529C94.2646 107.578 94.4405 107.703 94.5489 107.876C94.8772 108.406 95.0846 108.997 95.1577 109.609C95.2308 110.221 95.168 110.841 94.9732 111.429C94.7682 112.009 94.4399 112.542 94.0088 112.997C93.5777 113.451 93.0527 113.815 92.467 114.068C91.3701 114.535 90.1783 114.766 88.9766 114.745Z" fill="white"/>
<path d="M66.8351 209.412C66.6826 209.412 66.5333 209.369 66.4068 209.288C66.2806 209.208 66.1825 209.093 66.1259 208.959C66.0692 208.824 66.0563 208.678 66.0889 208.537C66.1215 208.395 66.1982 208.266 66.3088 208.167C67.1397 207.46 68.0454 206.834 69.0112 206.302C69.3354 206.109 70.0296 205.745 70.8306 205.321C71.7842 204.819 72.8541 204.253 73.453 203.901C73.538 203.85 73.6328 203.818 73.7318 203.802C73.8306 203.787 73.9317 203.789 74.0293 203.811C74.1269 203.832 74.2191 203.872 74.3005 203.928C74.3819 203.984 74.451 204.053 74.5038 204.134C74.5566 204.215 74.5921 204.303 74.6085 204.397C74.6247 204.491 74.6213 204.586 74.5984 204.678C74.5755 204.77 74.5337 204.859 74.4752 204.935C74.4168 205.012 74.3428 205.077 74.2578 205.128C73.6284 205.488 72.5413 206.073 71.5744 206.58C70.823 206.977 70.1116 207.352 69.8179 207.527C68.9401 208.009 68.116 208.571 67.3577 209.21C67.2171 209.338 67.0303 209.41 66.8351 209.412ZM238.885 207.767C238.74 207.767 238.601 207.727 238.479 207.655L232.399 204.025C232.227 203.923 232.105 203.76 232.062 203.574C232.018 203.387 232.052 203.192 232.161 203.03C232.268 202.867 232.439 202.754 232.638 202.71C232.836 202.669 233.042 202.701 233.213 202.804L239.293 206.435C239.433 206.518 239.54 206.643 239.599 206.789C239.658 206.935 239.663 207.096 239.618 207.245C239.572 207.397 239.475 207.529 239.343 207.622C239.211 207.716 239.051 207.767 238.885 207.767Z" fill="black"/>
<path d="M212.138 109.896C212.78 110.367 213.344 110.431 214.113 110.431C214.321 110.431 215.218 110.161 215.398 110.057C215.592 109.945 215.821 110.062 216.015 109.95C216.363 109.749 217.117 109.896 217.505 109.896C218.867 109.896 220.208 110.28 221.309 111.156C221.828 111.57 222.398 111.925 222.548 112.624C222.632 113.021 222.85 113.331 222.85 113.771V114.924C222.85 115.921 222.585 116.715 222.285 117.652C222.105 118.213 221.718 119.364 221.052 119.518C220.599 119.623 219.961 119.269 219.561 119.072C218.849 118.721 217.547 118.719 216.797 118.935C215.068 119.435 214.319 121.428 214.319 123.137C214.319 123.918 214.125 124.615 214.839 125.033C215.41 125.367 216.052 125.772 216.5 126.239C216.716 126.463 217.054 126.598 217.243 126.851C217.405 127.069 216.971 127.366 216.849 127.493C216.241 128.125 215.64 128.825 214.993 129.466C214.26 130.193 213.407 129.793 212.469 129.793C211.988 129.793 211.419 129.89 210.978 129.686C210.367 129.403 209.866 128.937 209.282 128.616C208.73 128.313 207.977 128.1 207.484 127.701C206.954 127.273 206.123 127.043 205.456 127.012C204.721 126.977 204.07 126.644 203.372 126.483C201.756 126.109 201.804 124.116 201.779 122.733C201.743 120.751 201.573 118.771 201.573 116.778C201.573 115.968 201.8 115.07 201.984 114.282C202.163 113.516 202.331 112.681 202.624 111.953C203.335 110.189 204.622 107.543 206.764 107.543C207.178 107.543 207.732 107.445 208.129 107.567C208.828 107.782 209.509 108.084 210.207 108.292C210.936 108.509 211.536 109.456 212.138 109.896Z" fill="white"/>
<path d="M214.894 106.12C214.43 106.758 213.892 107.841 213.892 108.625C214.398 108.391 214.88 108.07 215.396 107.831C216.207 107.456 216.971 107.082 217.824 106.769C218.899 106.376 220.136 106.225 221.255 105.975C221.73 105.869 222.205 105.692 222.692 105.656C222.943 105.637 222.824 104.592 222.809 104.418C222.742 103.642 221.907 103.709 221.433 103.315C220.641 102.655 219.305 103.296 218.492 103.568C216.903 104.099 215.832 104.83 214.894 106.12Z" fill="white"/>
</svg>
